<?xml version="1.0" encoding="UTF-8"?>
<svg width="500px" height="500px" viewBox="0 0 500 500" version="1.1" xmlns="http://www.w3.org/2000/svg" xmlns:xlink="http://www.w3.org/1999/xlink">
    <!-- Generator: Sketch 42 (36781) - http://www.bohemiancoding.com/sketch -->
    <title>logo</title>
    <desc>Created with Sketch.</desc>
    <defs>
        <linearGradient x1="50%" y1="0%" x2="50%" y2="130.443769%" id="linearGradient-1">
            <stop stop-color="#FBDA61" offset="0%"></stop>
            <stop stop-color="#F76B1C" offset="100%"></stop>
        </linearGradient>
        <rect id="path-2" x="79.0038777" y="81.5038777" width="390" height="385" rx="59"></rect>
        <mask id="mask-3" maskContentUnits="userSpaceOnUse" maskUnits="objectBoundingBox" x="0" y="0" width="390" height="385" fill="white">
            <use xlink:href="#path-2"></use>
        </mask>
        <linearGradient x1="50%" y1="0%" x2="50%" y2="100%" id="linearGradient-4">
            <stop stop-color="#FBDA61" offset="0%"></stop>
            <stop stop-color="#F76B1C" offset="100%"></stop>
        </linearGradient>
    </defs>
    <g id="Page-1" stroke="none" stroke-width="1" fill="none" fill-rule="evenodd">
        <g id="logo" transform="translate(-24.000000, -24.000000)">
            <use id="Rectangle" stroke="url(#linearGradient-1)" mask="url(#mask-3)" stroke-width="26" fill="#FFFFFF" transform="translate(274.003878, 274.003878) rotate(45.000000) translate(-274.003878, -274.003878) " xlink:href="#path-2"></use>
            <path d="M99.4517418,212.490925 C99.8312895,213.247136 100.035152,213.649781 100.270585,214.111723 C100.942965,215.430999 101.733583,216.96111 102.637079,218.684491 C105.218018,223.607528 108.186125,229.092822 111.498539,234.999882 C120.962748,251.877502 131.289479,268.755348 142.136518,284.510041 C160.152718,310.677523 177.769602,331.072806 194.325436,343.478549 C205.956191,352.193794 216.830024,356.761732 226.812508,356.683578 C239.760644,356.582206 249.49343,347.825967 257.417411,330.997838 C263.400649,318.29126 267.131396,305.434803 274.517679,275.210273 C274.643709,274.694546 274.643709,274.694546 274.769746,274.17881 C282.162093,243.93116 285.992146,230.795149 292.074539,217.988028 C300.032613,201.231462 309.73413,192.577561 322.571862,192.43747 C330.735246,192.348388 339.460918,195.356479 348.674186,201.218729 C366.790086,212.745577 386.165927,234.797657 405.916044,264.299474 C416.462803,280.053739 426.447367,296.935587 435.55402,313.817671 C438.741409,319.726512 441.591278,325.213119 444.064248,330.136645 C444.929621,331.859547 445.686016,333.388884 446.328513,334.707053 C446.553287,335.168207 446.747743,335.569971 446.911265,335.910142 C447.009239,336.113956 448.011567,335.892784 448.011567,335.892784 C447.648238,335.135102 447.452993,334.731708 447.227419,334.268911 C446.583205,332.94722 445.825048,331.41432 444.95786,329.687805 C442.480658,324.755854 439.62632,319.260644 436.434136,313.342913 C427.313439,296.434791 417.313195,279.526433 406.747023,263.743172 C386.926059,234.135525 367.471557,211.993919 349.211013,200.375037 C339.846507,194.416557 330.939915,191.346095 322.56095,191.43753 C309.265876,191.582612 299.275881,200.49384 291.171235,217.559028 C285.048361,230.451386 281.20822,243.621994 273.798336,273.941403 C273.672294,274.45716 273.672294,274.45716 273.546265,274.972878 C266.177385,305.126198 262.456259,317.9495 256.512693,330.571827 C248.735006,347.08927 239.290835,355.585854 226.804679,355.683609 C217.074696,355.759786 206.396193,351.273903 194.925092,342.678291 C178.473886,330.350949 160.920156,310.02878 142.960177,283.942956 C132.132233,268.215997 121.821011,251.3635 112.370764,234.510778 C109.063117,228.612218 106.099462,223.135152 103.522747,218.220172 C102.621064,216.500247 101.832207,214.973545 101.161544,213.657639 C100.926911,213.197267 100.723838,212.796181 100.552996,212.456579 C100.45063,212.253094 99.4517418,212.490925 99.4517418,212.490925 Z" id="Path" stroke="url(#linearGradient-4)" stroke-width="10" fill-rule="nonzero"></path>
        </g>
    </g>
</svg>